<?xml version="1.0" encoding="UTF-8" standalone="no"?>
<!-- Created with Inkscape (http://www.inkscape.org/) -->

<svg
   width="138.72948mm"
   height="29.258238mm"
   viewBox="0 0 138.72948 29.258238"
   version="1.1"
   id="svg18366"
   sodipodi:docname="shanoirLogoWhite.svg"
   inkscape:version="1.2.2 (b0a8486541, 2022-12-01)"
   xmlns:inkscape="http://www.inkscape.org/namespaces/inkscape"
   xmlns:sodipodi="http://sodipodi.sourceforge.net/DTD/sodipodi-0.dtd"
   xmlns="http://www.w3.org/2000/svg"
   xmlns:svg="http://www.w3.org/2000/svg">
  <sodipodi:namedview
     id="namedview18368"
     pagecolor="#ffffff"
     bordercolor="#000000"
     borderopacity="0.25"
     inkscape:showpageshadow="2"
     inkscape:pageopacity="0.0"
     inkscape:pagecheckerboard="0"
     inkscape:deskcolor="#d1d1d1"
     inkscape:document-units="mm"
     showgrid="false"
     inkscape:zoom="13.455443"
     inkscape:cx="393.3724"
     inkscape:cy="86.65638"
     inkscape:window-width="1920"
     inkscape:window-height="1065"
     inkscape:window-x="1600"
     inkscape:window-y="32"
     inkscape:window-maximized="1"
     inkscape:current-layer="layer1" />
  <defs
     id="defs18363">
    <clipPath
       clipPathUnits="userSpaceOnUse"
       id="clipPath7148-2-9">
      <ellipse
         style="fill:#000000;stroke-width:0.303771"
         id="ellipse7150-2-4"
         cx="121.16549"
         cy="127.02853"
         rx="8.0649796"
         ry="7.918407" />
    </clipPath>
  </defs>
  <g
     inkscape:label="Layer 1"
     inkscape:groupmode="layer"
     id="layer1"
     transform="translate(-33.33858,-95.531955)">
    <path
       d="m 48.01934,104.20025 v 3.17222 q -1.47545,-0.73773 -3.02468,-1.10659 -1.54922,-0.36886 -3.17222,-0.36886 -2.54516,0 -3.83618,0.77461 -1.25413,0.77461 -1.25413,2.32384 0,1.18036 0.92215,1.8812 0.92216,0.66396 3.65175,1.29102 l 1.14348,0.22132 q 3.61486,0.8115 5.1272,2.21318 1.54922,1.40168 1.54922,3.90995 0,2.87713 -2.28695,4.57391 -2.28695,1.69677 -6.27068,1.69677 -1.65988,0 -3.46731,-0.33198 -1.77054,-0.33198 -3.76241,-0.99593 v -3.46732 q 1.84432,0.95905 3.68864,1.43857 1.84431,0.47952 3.61486,0.47952 2.39761,0 3.68863,-0.8115 1.29102,-0.8115 1.29102,-2.28695 0,-1.40168 -0.95904,-2.13941 -0.92216,-0.73772 -4.0575,-1.40168 l -1.18036,-0.29509 q -3.13534,-0.66395 -4.53702,-2.02874 -1.40168,-1.3648 -1.40168,-3.7993 0,-2.87713 2.06563,-4.46324 2.06564,-1.58611 5.82804,-1.58611 1.91809,0 3.57798,0.2582 1.65988,0.25821 3.06156,0.84839 z"
       style="font-weight:normal;font-size:37.7716px;font-family:Chandas;-inkscape-font-specification:Chandas;fill:#ffffff;stroke-width:0.393453"
       id="path13954" />
    <path
       d="m 71.36839,111.76194 v 12.46758 H 67.97485 V 111.8726 q 0,-2.9509 -1.14348,-4.38947 -1.14348,-1.43857 -3.43043,-1.43857 -2.72959,0 -4.3157,1.73366 -1.58611,1.73366 -1.58611,4.75834 v 11.69296 H 54.0687 V 95.531955 h 3.43043 v 11.250335 q 1.18036,-1.84432 2.84025,-2.76648 1.65988,-0.92215 3.79929,-0.92215 3.57797,0 5.3854,2.21318 1.84432,2.17629 1.84432,6.4551 z"
       style="font-weight:normal;font-size:37.7716px;font-family:Chandas;-inkscape-font-specification:Chandas;fill:#ffffff;stroke-width:0.393453"
       id="path13956" />
    <path
       d="m 87.89346,113.86446 q -4.09438,0 -5.68049,0.92216 -1.58611,0.92216 -1.58611,3.20911 0,1.80743 1.18036,2.87714 1.18036,1.03281 3.246,1.03281 2.80336,0 4.50013,-1.99186 1.69677,-1.99186 1.69677,-5.31163 v -0.73773 z m 6.7502,-1.40168 v 11.76674 h -3.39354 v -3.13534 q -1.14348,1.88121 -2.87713,2.80336 -1.73366,0.88528 -4.24193,0.88528 -3.17223,0 -5.05343,-1.77055 -1.84432,-1.80743 -1.84432,-4.79522 0,-3.46731 2.32384,-5.23786 2.32384,-1.77054 6.97152,-1.77054 h 4.72145 v -0.36886 q 0,-2.32384 -1.54923,-3.57798 -1.51234,-1.29102 -4.27881,-1.29102 -1.77055,0 -3.46732,0.40575 -1.69677,0.40575 -3.24599,1.29102 v -3.17222 q 1.8812,-0.70084 3.61486,-1.03282 1.77054,-0.36886 3.43042,-0.36886 4.46325,0 6.67643,2.32384 2.21318,2.32383 2.21318,7.04528 z"
       style="font-weight:normal;font-size:37.7716px;font-family:Chandas;-inkscape-font-specification:Chandas;fill:#ffffff;stroke-width:0.393453"
       id="path13958" />
    <path
       d="m 118.17714,111.76194 v 12.46758 H 114.7836 V 111.8726 q 0,-2.9509 -1.14348,-4.38947 -1.14348,-1.43857 -3.43043,-1.43857 -2.72959,0 -4.3157,1.73366 -1.58611,1.73366 -1.58611,4.75834 v 11.69296 h -3.43043 v -20.65634 h 3.43043 v 3.20911 q 1.18036,-1.84432 2.84025,-2.76648 1.65988,-0.92215 3.79929,-0.92215 3.57797,0 5.3854,2.21318 1.84432,2.17629 1.84432,6.4551 z"
       style="font-weight:normal;font-size:37.7716px;font-family:Chandas;-inkscape-font-specification:Chandas;fill:#ffffff;stroke-width:0.393453"
       id="path13960" />
    <path
       id="path13962"
       style="font-weight:normal;font-size:37.7716px;font-family:Chandas;-inkscape-font-specification:Chandas;fill:#ffffff;stroke-width:0.393453"
       d="m 133.33744,103.09378 c -2.6721,-0.0534 -5.45741,0.92924 -7.16268,3.05881 -2.17867,2.65467 -2.56229,6.29835 -2.26586,9.60531 0.25981,3.00942 1.61536,6.1304 4.29694,7.72605 2.43413,1.44791 5.48551,1.60686 8.18158,0.89428 2.77354,-0.74435 4.89715,-3.09596 5.72593,-5.7976 0.85912,-2.79538 0.87644,-5.83941 0.18678,-8.67297 -0.70199,-2.86924 -2.79617,-5.47425 -5.6829,-6.33915 -1.05736,-0.33904 -2.17194,-0.47491 -3.27979,-0.47473 z" />
    <path
       d="m 148.01818,103.57318 h 3.39354 v 20.65634 h -3.39354 z m 0,-8.041225 h 3.39354 v 4.3157 h -3.39354 z"
       style="font-weight:normal;font-size:37.7716px;font-family:Chandas;-inkscape-font-specification:Chandas;fill:#ffffff;stroke-width:0.393453"
       id="path13964" />
    <path
       d="m 172.06806,106.7454 q -0.55329,-0.33197 -1.25413,-0.47952 -0.66396,-0.14754 -1.47546,-0.14754 -2.87713,0 -4.42636,1.8812 -1.51234,1.84431 -1.51234,5.34852 v 10.88146 h -3.43042 v -20.65634 h 3.43042 v 3.20911 q 1.03282,-1.8812 2.76648,-2.76648 1.73366,-0.92215 4.16815,-0.92215 0.36887,0 0.77462,0.0369 0.40575,0.0369 0.92215,0.11066 z"
       style="font-weight:normal;font-size:37.7716px;font-family:Chandas;-inkscape-font-specification:Chandas;fill:#ffffff;stroke-width:0.393453"
       id="path13966" />
    <path
       id="path337-1-9"
       clip-path="url(#clipPath7148-2-9)"
       style="fill:#000000;fill-opacity:1;stroke-width:0.264583"
       d="m 119.29037,120.4737 c -0.34539,0.003 -0.34501,0.22869 -0.27627,1.288 0.0836,1.28905 0.0514,1.36283 -0.72832,1.68582 -0.52971,0.21941 -1.129,0.85971 -1.70982,1.82692 -1.65222,2.75138 -1.83161,3.21726 -1.51138,3.92008 0.40766,0.89471 2.28052,1.69088 3.51885,1.49597 1.73978,-0.27383 2.18791,0.0132 3.76648,2.41029 0.34408,0.52249 0.66094,1.03708 0.91221,1.4744 1.73329,-0.87143 3.0354,-2.53752 3.6031,-4.40464 0.36644,-1.20296 0.54735,-2.46124 0.55897,-3.72202 -1.51678,-0.23988 -2.14855,-0.78929 -2.80936,-2.3309 -0.26571,-0.61993 -0.76117,-1.39443 -1.10124,-1.7212 -0.71431,-0.68636 -2.95852,-1.77081 -3.92556,-1.89683 -0.11995,-0.0156 -0.21796,-0.0265 -0.29766,-0.0259 z m -0.85363,5.49242 a 0.68596499,0.70217848 0 0 1 0.68598,0.70246 0.68596499,0.70217848 0 0 1 -0.68598,0.70203 0.68596499,0.70217848 0 0 1 -0.68598,-0.70203 0.68596499,0.70217848 0 0 1 0.68598,-0.70246 z"
       transform="matrix(1.2083307,0,0,1.1976322,-11.161686,-37.295437)" />
  </g>
</svg>
