<?xml version="1.0" encoding="UTF-8" standalone="no"?>
<!-- Created with Inkscape (http://www.inkscape.org/) -->

<svg
   width="138.72948mm"
   height="29.258198mm"
   viewBox="0 0 138.72948 29.258198"
   version="1.1"
   id="svg17467"
   inkscape:version="1.2.2 (b0a8486541, 2022-12-01)"
   sodipodi:docname="shanoirLogoWhiteTransHead.svg"
   xmlns:inkscape="http://www.inkscape.org/namespaces/inkscape"
   xmlns:sodipodi="http://sodipodi.sourceforge.net/DTD/sodipodi-0.dtd"
   xmlns="http://www.w3.org/2000/svg"
   xmlns:svg="http://www.w3.org/2000/svg">
  <sodipodi:namedview
     id="namedview17469"
     pagecolor="#ffffff"
     bordercolor="#000000"
     borderopacity="0.25"
     inkscape:showpageshadow="2"
     inkscape:pageopacity="0.0"
     inkscape:pagecheckerboard="0"
     inkscape:deskcolor="#d1d1d1"
     inkscape:document-units="mm"
     showgrid="false"
     inkscape:zoom="0.2102413"
     inkscape:cx="271.11704"
     inkscape:cy="385.27159"
     inkscape:window-width="1920"
     inkscape:window-height="1065"
     inkscape:window-x="1600"
     inkscape:window-y="32"
     inkscape:window-maximized="1"
     inkscape:current-layer="layer1" />
  <defs
     id="defs17464" />
  <g
     inkscape:label="Layer 1"
     inkscape:groupmode="layer"
     id="layer1"
     transform="translate(-33.292799,-46.206368)">
    <path
       d="m 47.973559,54.874658 v 3.17222 q -1.47545,-0.73773 -3.02468,-1.10659 -1.54922,-0.36886 -3.17222,-0.36886 -2.54516,0 -3.83618,0.77461 -1.25413,0.77461 -1.25413,2.32384 0,1.18036 0.92215,1.8812 0.92216,0.66396 3.65175,1.29102 l 1.14348,0.22132 q 3.61486,0.8115 5.1272,2.21318 1.54922,1.40168 1.54922,3.90995 0,2.87713 -2.28695,4.57391 -2.28695,1.69677 -6.27068,1.69677 -1.65988,0 -3.46731,-0.33198 -1.77055,-0.33198 -3.76241,-0.99593 v -3.46732 q 1.84432,0.95905 3.68864,1.43857 1.84431,0.47952 3.61486,0.47952 2.39761,0 3.68863,-0.8115 1.29102,-0.8115 1.29102,-2.28695 0,-1.40168 -0.95904,-2.13941 -0.92216,-0.73772 -4.0575,-1.40168 l -1.18036,-0.29509 q -3.13534,-0.66395 -4.53702,-2.02874 -1.40168,-1.3648 -1.40168,-3.7993 0,-2.87713 2.06563,-4.46324 2.06564,-1.58611 5.82804,-1.58611 1.91809,0 3.57798,0.2582 1.65988,0.25821 3.06156,0.84839 z"
       style="font-weight:normal;font-size:37.7716px;font-family:Chandas;-inkscape-font-specification:Chandas;fill:#ffffff;stroke-width:0.393453"
       id="path13954" />
    <path
       d="m 71.322609,62.436348 v 12.46758 h -3.39354 v -12.35692 q 0,-2.9509 -1.14348,-4.38947 -1.14348,-1.43857 -3.43043,-1.43857 -2.72959,0 -4.3157,1.73366 -1.58611,1.73366 -1.58611,4.75834 v 11.69296 h -3.43043 v -28.69756 h 3.43043 v 11.25033 q 1.18036,-1.84432 2.84025,-2.76648 1.65988,-0.92215 3.79929,-0.92215 3.57797,0 5.3854,2.21318 1.84432,2.17629 1.84432,6.4551 z"
       style="font-weight:normal;font-size:37.7716px;font-family:Chandas;-inkscape-font-specification:Chandas;fill:#ffffff;stroke-width:0.393453"
       id="path13956" />
    <path
       d="m 87.847679,64.538868 q -4.09438,0 -5.68049,0.92216 -1.58611,0.92216 -1.58611,3.20911 0,1.80743 1.18036,2.87714 1.18036,1.03281 3.246,1.03281 2.80336,0 4.50013,-1.99186 1.69677,-1.99186 1.69677,-5.31163 v -0.73773 z m 6.7502,-1.40168 v 11.76674 h -3.39354 v -3.13534 q -1.14348,1.88121 -2.87714,2.80336 -1.73365,0.88528 -4.24192,0.88528 -3.17223,0 -5.05343,-1.77055 -1.84432,-1.80743 -1.84432,-4.79522 0,-3.46731 2.32384,-5.23786 2.32384,-1.77054 6.97152,-1.77054 h 4.72145 v -0.36886 q 0,-2.32384 -1.54923,-3.57798 -1.51234,-1.29102 -4.27881,-1.29102 -1.77055,0 -3.46732,0.40575 -1.69677,0.40575 -3.24599,1.29102 v -3.17222 q 1.8812,-0.70084 3.61486,-1.03282 1.77054,-0.36886 3.43042,-0.36886 4.46325,0 6.67643,2.32384 2.21318,2.32383 2.21318,7.04528 z"
       style="font-weight:normal;font-size:37.7716px;font-family:Chandas;-inkscape-font-specification:Chandas;fill:#ffffff;stroke-width:0.393453"
       id="path13958" />
    <path
       d="m 118.13136,62.436348 v 12.46758 h -3.39354 v -12.35692 q 0,-2.9509 -1.14348,-4.38947 -1.14348,-1.43857 -3.43043,-1.43857 -2.72959,0 -4.3157,1.73366 -1.58611,1.73366 -1.58611,4.75834 v 11.69296 h -3.43043 v -20.65634 h 3.43043 v 3.20911 q 1.18036,-1.84432 2.84025,-2.76648 1.65988,-0.92215 3.79929,-0.92215 3.57797,0 5.3854,2.21318 1.84432,2.17629 1.84432,6.4551 z"
       style="font-weight:normal;font-size:37.7716px;font-family:Chandas;-inkscape-font-specification:Chandas;fill:#ffffff;stroke-width:0.393453"
       id="path13960" />
    <path
       id="path13962"
       style="font-weight:normal;font-size:37.7716px;font-family:Chandas;-inkscape-font-specification:Chandas;fill:#ffffff;stroke-width:0.393453"
       d="m 133.04103,53.766118 c -2.59432,0.0111 -5.26026,0.99778 -6.91224,3.0608 -2.17867,2.65467 -2.56193,6.29866 -2.2655,9.60561 0.25981,3.00942 1.61532,6.12998 4.2969,7.72563 2.43413,1.44791 5.48535,1.6071 8.18141,0.89452 0.47754,-0.12816 0.93527,-0.3049 1.37098,-0.52193 -0.30411,-0.5249 -0.68404,-1.13841 -1.10123,-1.7663 -1.90743,-2.87077 -2.44891,-3.2146 -4.55114,-2.88665 -1.49631,0.23343 -3.75935,-0.72008 -4.25194,-1.79162 -0.38694,-0.84172 -0.17018,-1.39967 1.82625,-4.6948 0.70182,-1.15838 1.42596,-1.92521 2.06602,-2.18798 0.94221,-0.38683 0.98108,-0.4752 0.88005,-2.019 -0.0831,-1.26866 -0.0835,-1.53917 0.33383,-1.54254 0.0963,-7.8e-4 0.21473,0.0123 0.35967,0.031 1.16851,0.15093 3.88026,1.44969 4.74338,2.2717 0.41092,0.39135 1.00959,1.31892 1.33067,2.06137 0.79824,1.84574 1.563,2.5031 3.39462,2.79053 0.0131,-1.41943 -0.1542,-2.84138 -0.48834,-4.21421 -0.70199,-2.86924 -2.79613,-5.47425 -5.68286,-6.33915 -1.05736,-0.33904 -2.17205,-0.47509 -3.2799,-0.47491 -0.0835,-0.002 -0.16694,-0.002 -0.25063,-0.002 z m -1.15807,10.45363 a 0.82887256,0.84095156 0 0 0 -0.82889,0.84129 0.82887256,0.84095156 0 0 0 0.82889,0.84078 0.82887256,0.84095156 0 0 0 0.82889,-0.84078 0.82887256,0.84095156 0 0 0 -0.82889,-0.84129 z" />
    <path
       d="m 147.9724,54.247588 h 3.39354 v 20.65634 h -3.39354 z m 0,-8.04122 h 3.39354 v 4.3157 h -3.39354 z"
       style="font-weight:normal;font-size:37.7716px;font-family:Chandas;-inkscape-font-specification:Chandas;fill:#ffffff;stroke-width:0.393453"
       id="path13964" />
    <path
       d="m 172.02228,57.419808 q -0.55329,-0.33197 -1.25413,-0.47952 -0.66396,-0.14754 -1.47546,-0.14754 -2.87713,0 -4.42636,1.8812 -1.51234,1.84431 -1.51234,5.34852 v 10.88146 h -3.43042 v -20.65634 h 3.43042 v 3.20911 q 1.03282,-1.8812 2.76648,-2.76648 1.73366,-0.92215 4.16815,-0.92215 0.36887,0 0.77462,0.0369 0.40575,0.0369 0.92215,0.11066 z"
       style="font-weight:normal;font-size:37.7716px;font-family:Chandas;-inkscape-font-specification:Chandas;fill:#ffffff;stroke-width:0.393453"
       id="path13966" />
  </g>
</svg>
