<?xml version="1.0" encoding="UTF-8" standalone="no"?>
<!-- Created with Inkscape (http://www.inkscape.org/) -->

<svg
   width="138.72948mm"
   height="29.258198mm"
   viewBox="0 0 138.72948 29.258198"
   version="1.1"
   id="svg14009"
   inkscape:version="1.2.2 (b0a8486541, 2022-12-01)"
   sodipodi:docname="shanoirLogoBlack.svg"
   xmlns:inkscape="http://www.inkscape.org/namespaces/inkscape"
   xmlns:sodipodi="http://sodipodi.sourceforge.net/DTD/sodipodi-0.dtd"
   xmlns="http://www.w3.org/2000/svg"
   xmlns:svg="http://www.w3.org/2000/svg">
  <sodipodi:namedview
     id="namedview14011"
     pagecolor="#ffffff"
     bordercolor="#000000"
     borderopacity="0.25"
     inkscape:showpageshadow="2"
     inkscape:pageopacity="0.0"
     inkscape:pagecheckerboard="0"
     inkscape:deskcolor="#d1d1d1"
     inkscape:document-units="mm"
     showgrid="false"
     inkscape:zoom="0.84096521"
     inkscape:cx="-145.0714"
     inkscape:cy="126.04564"
     inkscape:window-width="1920"
     inkscape:window-height="1065"
     inkscape:window-x="1600"
     inkscape:window-y="32"
     inkscape:window-maximized="1"
     inkscape:current-layer="layer1" />
  <defs
     id="defs14006" />
  <g
     inkscape:label="Layer 1"
     inkscape:groupmode="layer"
     id="layer1"
     transform="translate(-34.365552,-24.957698)">
    <path
       d="m 49.04631,33.625988 v 3.17222 q -1.475453,-0.73773 -3.024679,-1.10659 -1.549226,-0.36886 -3.172224,-0.36886 -2.545157,0 -3.836178,0.77461 -1.254135,0.77461 -1.254135,2.32384 0,1.18036 0.922158,1.8812 0.922158,0.66396 3.651746,1.29102 l 1.143476,0.22132 q 3.61486,0.8115 5.1272,2.21318 1.549226,1.40168 1.549226,3.90995 0,2.87713 -2.286953,4.57391 -2.286952,1.69677 -6.270675,1.69677 -1.659885,0 -3.467315,-0.33198 -1.770544,-0.33198 -3.762405,-0.99593 v -3.46732 q 1.844316,0.95905 3.688632,1.43857 1.844317,0.47952 3.61486,0.47952 2.397612,0 3.688633,-0.8115 1.291021,-0.8115 1.291021,-2.28695 0,-1.40168 -0.959044,-2.13941 -0.922158,-0.73772 -4.057496,-1.40168 l -1.180362,-0.29509 q -3.135338,-0.66395 -4.537019,-2.02874 -1.40168,-1.3648 -1.40168,-3.7993 0,-2.87713 2.065634,-4.46324 2.065634,-1.58611 5.82804,-1.58611 1.918089,0 3.577974,0.2582 1.659884,0.25821 3.061565,0.84839 z"
       style="font-weight:normal;font-size:37.7716px;font-family:Chandas;-inkscape-font-specification:Chandas;stroke-width:0.393453"
       id="path13954" />
    <path
       d="m 72.395355,41.187678 v 12.46758 h -3.393542 v -12.35692 q 0,-2.9509 -1.143476,-4.38947 -1.143476,-1.43857 -3.430428,-1.43857 -2.729589,0 -4.315701,1.73366 -1.586112,1.73366 -1.586112,4.75834 v 11.69296 h -3.430428 v -28.69756 h 3.430428 v 11.25033 q 1.180363,-1.84432 2.840247,-2.76648 1.659885,-0.92215 3.799292,-0.92215 3.577974,0 5.385404,2.21318 1.844316,2.17629 1.844316,6.4551 z"
       style="font-weight:normal;font-size:37.7716px;font-family:Chandas;-inkscape-font-specification:Chandas;stroke-width:0.393453"
       id="path13956" />
    <path
       d="m 88.92043,43.290198 q -4.094382,0 -5.680494,0.92216 -1.586112,0.92216 -1.586112,3.20911 0,1.80743 1.180362,2.87714 1.180363,1.03281 3.245997,1.03281 2.803361,0 4.500132,-1.99186 1.696771,-1.99186 1.696771,-5.31163 v -0.73773 z m 6.750198,-1.40168 v 11.76674 h -3.393542 v -3.13534 q -1.143476,1.88121 -2.877133,2.80336 -1.733658,0.88528 -4.241928,0.88528 -3.172224,0 -5.053427,-1.77055 -1.844316,-1.80743 -1.844316,-4.79522 0,-3.46731 2.323838,-5.23786 2.323839,-1.77054 6.971516,-1.77054 h 4.72145 v -0.36886 q 0,-2.32384 -1.549226,-3.57798 -1.512339,-1.29102 -4.278814,-1.29102 -1.770543,0 -3.467314,0.40575 -1.696771,0.40575 -3.245997,1.29102 v -3.17222 q 1.881203,-0.70084 3.61486,-1.03282 1.770544,-0.36886 3.430428,-0.36886 4.463246,0 6.676426,2.32384 2.213179,2.32383 2.213179,7.04528 z"
       style="font-weight:normal;font-size:37.7716px;font-family:Chandas;-inkscape-font-specification:Chandas;stroke-width:0.393453"
       id="path13958" />
    <path
       d="m 119.20411,41.187678 v 12.46758 h -3.39354 v -12.35692 q 0,-2.9509 -1.14348,-4.38947 -1.14348,-1.43857 -3.43043,-1.43857 -2.72959,0 -4.3157,1.73366 -1.58611,1.73366 -1.58611,4.75834 v 11.69296 h -3.43043 v -20.65634 h 3.43043 v 3.20911 q 1.18036,-1.84432 2.84025,-2.76648 1.65988,-0.92215 3.79929,-0.92215 3.57797,0 5.3854,2.21318 1.84432,2.17629 1.84432,6.4551 z"
       style="font-weight:normal;font-size:37.7716px;font-family:Chandas;-inkscape-font-specification:Chandas;stroke-width:0.393453"
       id="path13960" />
    <path
       id="path13962"
       style="font-weight:normal;font-size:37.7716px;font-family:Chandas;-inkscape-font-specification:Chandas;stroke-width:0.393453"
       d="m 134.11378,32.517448 c -2.59432,0.0111 -5.26026,0.99778 -6.91224,3.0608 -2.17867,2.65467 -2.56193,6.29866 -2.2655,9.60561 0.25981,3.00942 1.61532,6.12998 4.2969,7.72563 2.43413,1.44791 5.48535,1.6071 8.18141,0.89452 0.46846,-0.12572 0.91791,-0.29816 1.34617,-0.50953 -0.27153,-0.45537 -0.58828,-0.96055 -0.92966,-1.47433 -1.90743,-2.87077 -2.44943,-3.21407 -4.55166,-2.88613 -1.49631,0.23343 -3.75934,-0.72058 -4.25193,-1.79214 -0.38695,-0.84171 -0.16965,-1.39967 1.82676,-4.6948 0.70182,-1.15838 1.42596,-1.92469 2.06602,-2.18746 0.94221,-0.38683 0.98056,-0.47571 0.87954,-2.01952 -0.0831,-1.26865 -0.0835,-1.53917 0.33383,-1.54254 0.0963,-7.8e-4 0.21474,0.0128 0.35966,0.0315 1.16853,0.15093 3.88026,1.44918 4.74338,2.27118 0.41092,0.39135 1.0101,1.31944 1.33119,2.06189 0.77577,1.79378 1.52082,2.4645 3.24321,2.76469 0.0393,-1.51182 -0.12766,-3.03046 -0.48369,-4.49326 -0.70199,-2.86924 -2.79613,-5.47425 -5.68286,-6.33915 -1.05736,-0.33904 -2.17205,-0.47509 -3.2799,-0.47491 -0.0835,-0.002 -0.16694,-0.002 -0.25063,-0.002 z m -1.01131,10.758 a 0.82887256,0.84095156 0 0 0 -0.82889,0.8413 0.82887256,0.84095156 0 0 0 0.82889,0.84077 0.82887256,0.84095156 0 0 0 0.82889,-0.84077 0.82887256,0.84095156 0 0 0 -0.82889,-0.8413 z" />
    <path
       d="m 149.04515,32.998918 h 3.39354 v 20.65634 h -3.39354 z m 0,-8.04122 h 3.39354 v 4.3157 h -3.39354 z"
       style="font-weight:normal;font-size:37.7716px;font-family:Chandas;-inkscape-font-specification:Chandas;stroke-width:0.393453"
       id="path13964" />
    <path
       d="m 173.09503,36.171138 q -0.55329,-0.33197 -1.25413,-0.47952 -0.66396,-0.14754 -1.47546,-0.14754 -2.87713,0 -4.42636,1.8812 -1.51234,1.84431 -1.51234,5.34852 v 10.88146 h -3.43042 v -20.65634 h 3.43042 v 3.20911 q 1.03282,-1.8812 2.76648,-2.76648 1.73366,-0.92215 4.16815,-0.92215 0.36887,0 0.77462,0.0369 0.40575,0.0369 0.92215,0.11066 z"
       style="font-weight:normal;font-size:37.7716px;font-family:Chandas;-inkscape-font-specification:Chandas;stroke-width:0.393453"
       id="path13966" />
  </g>
</svg>
